<?xml version="1.0" encoding="utf-8"?>
<!-- Generator: Adobe Illustrator 17.0.0, SVG Export Plug-In . SVG Version: 6.00 Build 0)  -->
<!DOCTYPE svg PUBLIC "-//W3C//DTD SVG 1.1//EN" "http://www.w3.org/Graphics/SVG/1.1/DTD/svg11.dtd">
<svg version="1.1" id="logo_x5F_1" xmlns="http://www.w3.org/2000/svg" xmlns:xlink="http://www.w3.org/1999/xlink" x="0px" y="0px"
	 width="375.625px" height="433.5px" viewBox="0 0 375.625 433.5" enable-background="new 0 0 375.625 433.5" xml:space="preserve">
<g>
	<circle fill="#D93827" stroke="#D93827" stroke-width="0.2228" cx="171.644" cy="220.18" r="97.206"/>
	<g>
		<path fill="#D93827" stroke="#D93827" stroke-width="0.447" d="M267.607,342.699l12.308-10.823c0,0,2.159,5.84-2.415,9.664
			C277.5,341.54,273.669,345.305,267.607,342.699z"/>
		<path fill="#D93827" stroke="#D93827" stroke-width="0.447" d="M272.642,326.764c-2.734-0.175-4.675-2.834-4.675-2.834
			l-35.028-39.833c0,0-1.83-2.757-4.067-0.789l-2.686,2.362c0,0-1.888,1.462-0.82,2.903l36.111,41.064c0,0,1.829,2.757,2.097,3.513
			c0.268,0.756,0.268,0.756,0.268,0.756s-0.833,3.114,2.78,7.674l12.308-10.823C278.931,330.757,275.375,326.939,272.642,326.764z
			 M257.553,318.405c-0.803,0.706-2.115,0.528-2.931-0.4c-0.815-0.927-0.824-2.251-0.021-2.957c0.803-0.707,2.115-0.528,2.931,0.399
			C258.346,316.375,258.356,317.699,257.553,318.405z"/>
	</g>
	<g>
		<path fill="#D93827" d="M26.802,147.474l-5.333-3.096c0,0-1.95-1.027,0.314-3.172c2.264-2.145,11.43-4.043,11.43-4.043
			s5.209-2.446-3.577-1.648c-8.786,0.798-15.371,2.355-19.969,12.607c0,0-1.308,6.157-2.051,7.217c0,0-0.828,1.787-2.848,3.407
			c0,0-1.736,2.389-0.676,3.132c1.06,0.744,6.725,4.12,7.635,2.754c0,0,1.29-1.845,0.976-3.138c-0.313-1.292,0.044-3.519,0.868-5.1
			c0.825-1.581,2.189-3.296,3.066-3.227l6.178,2.369C22.815,155.537,26.09,150.542,26.802,147.474z"/>
		<path fill="#D93827" d="M27.368,147.734c0,0-1.721,5.186-3.898,7.626c0,0,4.947,2.136,11.073,4.721
			c6.127,2.585,15.212,7.155,17.911,8.877c2.698,1.722,25.373,12.508,25.373,12.508s12.008,6.013,13.687,7.456
			c1.678,1.444,4.489-1.231,5.54-4.86c1.051-3.629,0.404-4.406-0.816-4.872c-1.22-0.467-5.213-1.972-5.213-1.972
			s-11.295-4.967-12.302-5.479c-1.007-0.512-14.724-7.073-14.724-7.073l-12.763-5.309l-11.893-5.433c0,0-6.6-3.425-7.493-3.98
			C31.85,149.944,28.049,147.559,27.368,147.734z"/>
	</g>
	<path fill="#D93927" d="M306.806,211.096c0,0-7.377-8.993-32.362,10.219c0,0-0.822,0.728-1.599,1.112
		c-0.777,0.384-15.068,7.763-21.495,9.971l-6.342,2.38c0,0-4.919,2-3.084,5.281c1.836,3.282,6.057,0.087,6.057,0.087
		s13.404-8.087,17.116-9.921c3.712-1.833,10.619-5.245,10.619-5.245s13.68-6.004,14.673-6.387c0,0,11.456-4.53,12.641-4.847
		C304.218,213.43,308.213,212.46,306.806,211.096z"/>
	<path fill="#D93927" d="M257.588,294.99c-0.084-0.169-0.142-0.285-0.168-0.341c0,0-0.753-1.616-1.416-1.302
		c-0.663,0.314,0.276,1.842,0.276,1.842l7.417,16.231c0.118,0.269,0.184,0.417,0.184,0.417s-0.186,0.45-0.858-0.827
		c-0.672-1.277-8.043-15.271-8.043-15.271s-0.779-1.643-1.414-1.3c-0.636,0.344,0.689,2.575,0.689,2.575l7.902,15.676
		c0,0-0.102,0.907-1.71-1.921c-1.608-2.828-5.455-9.116-5.455-9.116s-5.404-9.008-5.511-11.617c-0.107-2.609,1.641-3.97,0.305-6.928
		c-1.337-2.957-12.856-26.82-16.223-31.673c-1.475-2.126-3.295-4.739-4.49-7.204c0,0-3.484-5.882,0.19-7.249
		c4.846-1.803,7.2,6.626,8.83,12.304c1.629,5.677,12.824,29.695,14.268,32.601c1.445,2.906,3.605,2.413,5.558,4.146
		c1.953,1.734,5.511,11.617,5.511,11.617s2.436,6.958,3.61,9.992c1.173,3.034,0.407,2.539,0.407,2.539l-7.142-16.036
		c0,0-0.89-2.437-1.558-2.163c-0.668,0.275,0.112,1.918,0.112,1.918s6.176,14.56,6.739,15.889c0.564,1.329,0.098,1.187,0.098,1.187
		S258.812,297.444,257.588,294.99"/>
	<path fill="#D93927" d="M208.645,154.519c-3.448-1.279-1.468-4.397,3.38-14.661c4.847-10.264,7.352-19.192,7.868-20.637
		c0.516-1.445-0.863-3.071-0.863-3.071c-4.065-6.6,2.64-14.925,5.602-17.267c2.962-2.342,4.451-1.575,4.451-1.575l0.169,0.056
		c0,0,1.638,0.349,2.446,4.038c0.807,3.689,0.72,14.378-6.607,16.908c0,0-2.097,0.384-2.613,1.829
		c-0.516,1.445-4.235,9.939-6.989,20.951c-2.753,11.012-3.197,14.678-6.674,13.484L208.645,154.519z"/>
	<g>
		<path fill="#D93927" stroke="#D93927" stroke-width="0.0574" d="M171.185,327.987l2.774-0.088c0,0-0.375,2.06-2.874,2.331
			l-0.036-1.119l-0.995,0.032l0.036,1.119c0,0-2.511-0.092-3.074-2.142L171.185,327.987z"/>
		<path fill="#D93927" stroke="#D93927" stroke-width="0.0574" d="M168.795,328.063c0,0,1.98-0.37,3.564-0.516l-0.299-0.373
			c0,0-3.572,0.267-3.781,0.905L168.795,328.063z"/>
		<path fill="#D93927" stroke="#D93927" stroke-width="0.0574" d="M168.77,327.279c0,0,1.98-0.369,3.564-0.515l-0.299-0.373
			c0,0-3.572,0.267-3.781,0.905L168.77,327.279z"/>
		<path fill="#D93927" stroke="#D93927" stroke-width="0.0574" d="M168.745,326.495c0,0,1.98-0.369,3.564-0.516l-0.299-0.373
			c0,0-3.572,0.266-3.781,0.905L168.745,326.495z"/>
		<path fill="#D93927" stroke="#D93927" stroke-width="0.0574" d="M168.563,320.776c0,0,1.98-0.369,3.564-0.515l-0.299-0.373
			c0,0-3.572,0.266-3.781,0.905L168.563,320.776z"/>
		<path fill="#D93927" stroke="#D93927" stroke-width="0.0574" d="M168.59,321.636c0,0,1.98-0.37,3.564-0.515l-0.299-0.374
			c0,0-3.572,0.267-3.781,0.905L168.59,321.636z"/>
		<path fill="#D93927" stroke="#D93927" stroke-width="0.0574" d="M168.615,322.42c0,0,1.98-0.369,3.564-0.515l-0.299-0.373
			c0,0-3.572,0.266-3.781,0.905L168.615,322.42z"/>
		<path fill="#D93927" stroke="#D93927" stroke-width="0.0574" d="M168.643,323.281c0,0,1.98-0.369,3.564-0.515l-0.299-0.373
			c0,0-3.572,0.267-3.781,0.905L168.643,323.281z"/>
		<path fill="#D93927" stroke="#D93927" stroke-width="0.0574" d="M168.749,324.063c0,0,1.979-0.369,3.564-0.515l-0.299-0.373
			c0,0-3.572,0.267-3.781,0.905L168.749,324.063z"/>
		<path fill="#D93927" stroke="#D93927" stroke-width="0.0574" d="M168.692,324.85c0,0,1.98-0.37,3.564-0.515l-0.299-0.374
			c0,0-3.572,0.267-3.781,0.905L168.692,324.85z"/>
		<path fill="#D93927" stroke="#D93927" stroke-width="0.0574" d="M168.717,325.634c0,0,1.98-0.369,3.564-0.515l-0.299-0.373
			c0,0-3.572,0.266-3.781,0.905L168.717,325.634z"/>
		<path fill="#D93927" stroke="#D93927" stroke-width="0.0574" d="M168.438,316.835c0,0,1.98-0.369,3.564-0.516l-0.299-0.373
			c0,0-3.572,0.266-3.781,0.905L168.438,316.835z"/>
		<path fill="#D93927" stroke="#D93927" stroke-width="0.0574" d="M168.465,317.696c0,0,1.98-0.369,3.564-0.516l-0.299-0.373
			c0,0-3.572,0.266-3.781,0.905L168.465,317.696z"/>
		<path fill="#D93927" stroke="#D93927" stroke-width="0.0574" d="M168.488,318.424c0,0,1.98-0.369,3.564-0.515l-0.299-0.373
			c0,0-3.572,0.267-3.781,0.905L168.488,318.424z"/>
		<path fill="#D93927" stroke="#D93927" stroke-width="0.0574" d="M168.595,319.205c0,0,1.979-0.369,3.564-0.515l-0.299-0.374
			c0,0-3.572,0.267-3.781,0.905L168.595,319.205z"/>
		<path fill="#D93927" stroke="#D93927" stroke-width="0.0574" d="M168.538,319.992c0,0,1.98-0.37,3.564-0.515l-0.299-0.374
			c0,0-3.572,0.267-3.781,0.905L168.538,319.992z"/>
		<path fill="#D93927" stroke="#D93927" stroke-width="0.0574" d="M168.385,315.19c0,0,1.98-0.369,3.564-0.516l-0.299-0.373
			c0,0-3.572,0.266-3.781,0.905L168.385,315.19z"/>
		<path fill="#D93927" stroke="#D93927" stroke-width="0.0574" d="M168.413,316.051c0,0,1.98-0.369,3.564-0.515l-0.299-0.373
			c0,0-3.572,0.267-3.781,0.905L168.413,316.051z"/>
		<polyline fill="none" stroke="#D93927" stroke-width="0.0574" points="172.085,327.959 172.359,327.548 172.059,327.174 
			172.334,326.764 172.034,326.39 172.309,325.979 172.009,325.606 172.281,325.119 171.982,324.745 172.259,324.411 
			171.957,323.961 172.313,323.548 171.929,323.062 172.207,322.766 171.907,322.393 172.261,321.912 171.88,321.532 
			172.154,321.121 171.855,320.747 172.129,320.337 171.828,319.888 172.102,319.477 171.803,319.103 172.159,318.69 
			171.86,318.316 172.052,317.908 171.753,317.535 172.029,317.18 171.73,316.807 172.002,316.32 171.702,315.947 171.977,315.536 
			171.678,315.162 171.949,314.675 171.65,314.302 168.533,314.401 167.994,315.05 168.385,315.19 168.522,315.263 167.896,316.068 
			168.546,316.047 167.921,316.852 168.553,316.832 168.027,317.596 168.617,317.668 168.05,318.324 168.553,318.412 
			168.703,318.55 168.076,319.144 168.595,319.205 168.666,319.203 168.708,319.316 168.335,319.738 168.538,319.992 
			168.677,320.14 168.253,320.68 168.563,320.776 168.741,320.961 168.241,321.466 168.705,321.633 168.746,321.727 
			168.178,322.358 168.615,322.42 168.771,322.492 168.424,323.036 168.643,323.281 168.799,323.372 168.41,323.885 
			168.749,324.063 168.801,324.061 168.378,324.656 168.692,324.85 168.888,324.978 168.459,325.409 168.813,325.631 
			168.873,325.706 168.441,326.295 168.745,326.495 168.881,326.586 168.45,327.089 168.77,327.279 168.927,327.408 
			168.356,327.963 		"/>
	</g>
	<g>
		<path fill="none" stroke="#D93927" stroke-width="0.4182" d="M18.126,218.554c0,0,0.495,12.489,4.544,12.465
			c4.049-0.025,57.821-5.866,57.821-5.866s3.068,1.232,2.485-13.178c0,0-1.034-13.978-5.294-14.511l-57.248,5.808
			c0,0-3.968-0.363-3.102,8.032L18.126,218.554z"/>
		<path fill="none" stroke="#D93927" stroke-width="0.4182" d="M78.232,176.765"/>
		<path fill="#D93827" d="M18.824,224.507l14.228-1.444c0,0,6.255-1.102,5.98-7.615c-0.275-6.511-7.722-5.756-7.722-5.756
			l-13.979,1.611L18.824,224.507z"/>
		<circle fill="#EFC319" cx="32.151" cy="216.221" r="5.237"/>
		<circle fill="#D93827" cx="32.566" cy="216.064" r="2.848"/>
		<circle fill="none" stroke="#D93827" stroke-width="0.4182" cx="29.684" cy="226.427" r="2.09"/>
		<path fill="none" stroke="#D93827" stroke-width="0.4182" d="M44.424,219.165c0,0-5.043,1.63-5.393-3.717
			c0,0-0.978-3.932,4.56-4.494"/>
		<path fill="#D93827" stroke="#D93827" stroke-width="0.4182" d="M48.274,228.58c0,0-7.502-13.095-2.825-27.846l32.233-3.27
			c0,0,2.777-1.634,5.1,12.6c0,0,1.184,13.578-2.291,15.088L48.274,228.58z"/>
		<line fill="none" stroke="#D93827" stroke-width="0.4182" x1="43.134" y1="217.855" x2="42.559" y2="212.187"/>
		<line fill="none" stroke="#D93827" stroke-width="0.3834" x1="41.739" y1="217.498" x2="41.256" y2="212.734"/>
		
			<line fill="none" stroke="#D93827" stroke-width="0.8363" stroke-linecap="round" x1="42.724" y1="227.204" x2="38.572" y2="227.626"/>
		
			<line fill="none" stroke="#D93827" stroke-width="0.512" stroke-linecap="round" x1="36.621" y1="227.823" x2="35.065" y2="227.981"/>
		
			<line fill="none" stroke="#D93827" stroke-width="0.8213" stroke-linecap="round" x1="34.579" y1="204.152" x2="30.575" y2="204.558"/>
		
			<line fill="none" stroke="#D93827" stroke-width="1.0349" stroke-linecap="round" x1="19.6" y1="206.467" x2="19.76" y2="208.04"/>
		
			<line fill="none" stroke="#D93827" stroke-width="0.8213" stroke-linecap="round" x1="41.633" y1="203.436" x2="37.629" y2="203.842"/>
	</g>
	<path fill="#D93827" stroke="#D93827" stroke-width="0.1669" d="M106.1,102.8c0,0-0.484-2.904,2.945-7.301
		c0,0-1.25-1.896,0.202-2.46c1.452-0.565,2.097,0.484,2.097,0.484s4.235-4.88,13.391-0.322c9.156,4.558,21.66,19.885,21.66,19.885
		s7.946,8.672,5.687,16.175c0,0-1.049,2.259-2.017,3.227c0,0,0.927,1.089,0.202,2.218c-0.726,1.13-2.541,0.04-2.541,0.04
		s-1.936,2.178-7.058,2.622c0,0-0.121,1.896-1.977,1.492c0,0-1.613-0.565-1.251-2.057c0,0-5.445-2.622-6.051-9.842
		c-0.605-7.22,0.202-6.978,0.202-6.978s-0.847-0.363-0.404-1.452c0.444-1.089,0.145-3.121,4.719-7.623c0,0,3.067-2.834,7.22,0.202
		l0.403-0.242c0,0-8.753-8.995-10.81-10.729l-0.323,0.485c0,0,3.428,3.428,1.452,6.05c-1.977,2.622-5.204,4.961-6.696,5.082
		l-2.622,0.767c0,0-0.968,0.081-0.807-0.807c0,0-8.228,1.694-12.625-1.412c-4.397-3.106-4.034-4.114-4.034-4.114
		s-2.299-0.524-2.258-1.775C104.849,103.163,106.1,102.8,106.1,102.8z"/>
	<polyline fill="#D93827" stroke="#D93827" stroke-width="0.1669" points="133.796,106.744 137.186,110.134 136.195,110.683 
		133.249,107.738 133.851,106.672 	"/>
	<path fill="#D93827" stroke="#D93827" stroke-width="0.1669" d="M127.155,111.755l4.665,4.665c0,0-0.505,1.458-0.631,2.112
		l-6.156-6.156L127.155,111.755z"/>
	<g>
		<path fill="#D93827" stroke="#D93827" stroke-width="0.2186" stroke-linecap="round" stroke-linejoin="round" d="M119.946,143.046
			c0,0-1.81,0.598-5.872-6.741c0,0-6.489-9.943-9.102-12.826c-2.612-2.883-4.416-4.998-4.416-4.998s-1.41-1.674-2.527-0.332
			l-2.724-4.414l-1.46-0.537c0,0-1.413-0.468-0.689-2.251c0.724-1.784,1.812-9.526,1.536-10.547c0,0,4.26,2.493,6.384,6.001
			c2.124,3.507-1.078,4.426,5.675,10.985c6.754,6.558,8.456,11.549,10.833,15.892C117.584,133.276,122.614,142.682,119.946,143.046z
			"/>
		<path fill="#D93827" stroke="#D93827" stroke-width="0.2186" stroke-linejoin="round" d="M97.181,118.711l-1.313,0.87
			l-1.894-2.858c0,0-0.426-0.921,0.102-1.271l0.656-0.435L97.181,118.711z"/>
		<path fill="#D93827" stroke="#D93827" stroke-width="0.2186" d="M110.866,149.172c0,0-2.325,0.73-7.179-4.779
			c-4.855-5.509-4.602-4.674-6.981-8.414c-2.379-3.74-4.409-7.41-6.717-11.498c-2.308-4.088-4.673-4.326-4.673-4.326
			s-2.85-0.819-4.045-5.043l-0.69-2.251c0,0-0.414-1.23,1.045-0.693l1.969,0.701c0,0,1.414,0.166,1.155,1.441
			c-0.259,1.275,0.407,3.944,2.404,3.021c1.997-0.922,2.258-3.101,2.258-3.101s1.003-1.968,2.252-0.991
			c1.25,0.977,1.128,3.064,1.128,3.064s0.135,1.415,1.848,2.788c1.712,1.373,0.435,2.019,0.435,2.019s-0.975,0.345,1.841,5.2
			c2.816,4.855,4.544,9.126,9.284,14.311C110.941,145.804,112.402,148.462,110.866,149.172z"/>
		<path fill="#D93827" stroke="#D93827" stroke-width="0.2186" stroke-linejoin="round" d="M84.889,112.112
			c0,0-0.198-0.771-0.011-1.397l-4.676-3.12l0.64,3.388L84.889,112.112z"/>
		
			<line fill="none" stroke="#D93827" stroke-width="0.2186" stroke-linecap="round" x1="89.906" y1="112.097" x2="91.86" y2="112.106"/>
		<path fill="#D93827" stroke="#D93827" stroke-width="0.2186" stroke-linecap="round" d="M93.066,101.476
			c-0.752,0.329-1.272-1.061-1.272-1.061c-2.119-5.116-6.514-1.1-8.131-0.363c-1.618,0.738-4.441,1.371-8.494-3.433
			c-4.053-4.804-3.505-10.484-3.505-10.484s0.282-1.19-0.19-1.144c-0.471,0.045-0.558,0.57-0.558,0.57
			c-1.29,5.168,1.917,11.369,4.989,16.154c3.071,4.786,9.207,8.142,9.207,8.142c0.356,0.204,0.443-0.291,0.923-0.576
			c0.48-0.285,3.114,0.31,3.422,0.875c0.308,0.565,0.384,0.782,1.634,0.789c1.25,0.008,1.133-0.751,1.133-0.751
			s1.186-7.039,1.202-7.317C93.443,102.6,93.818,101.147,93.066,101.476z M88.081,107.223c-1.77,1.173-4.157,0.69-5.331-1.081
			c-1.174-1.771-0.689-4.158,1.081-5.331c1.771-1.173,4.158-0.69,5.331,1.081C90.336,103.662,89.851,106.049,88.081,107.223z"/>
		<circle fill="#D93827" stroke="#D93827" stroke-width="0.2186" stroke-linecap="round" cx="85.956" cy="104.017" r="2.859"/>
		<path fill="#D93827" stroke="#D93827" stroke-width="0.2186" stroke-linejoin="round" d="M72.299,85.782
			c0,0,0.085,5.829,2.157,8.602c2.072,2.773,4.841,7.96,10.958,3.972c0,0,2.386-1.748,3.506-1.42
			C90.04,97.263,74.435,84.867,72.299,85.782z M84.078,98.005c-0.654,0.433-1.536,0.255-1.97-0.4c-0.434-0.654-0.254-1.537,0.4-1.97
			c0.654-0.434,1.536-0.255,1.97,0.399C84.912,96.689,84.732,97.571,84.078,98.005z"/>
		<circle fill="#D93827" stroke="#D93827" stroke-width="0.2186" stroke-linejoin="round" cx="83.293" cy="96.82" r="0.734"/>
	</g>
	<g>
		<path fill="#D93927" stroke="#D93827" stroke-width="0.4584" d="M221.585,66.67c0,0,25.933-24.258,29.557-30.114
			c0,0-12.546-10.038-19.239-10.874c-6.692-0.837-14.777-5.578-30.253-20.773l-12.13,11.432c0,0,18.125,14.639,20.773,31.089
			C212.942,63.881,221.585,66.67,221.585,66.67z"/>
		<path fill="#D93927" stroke="#D93827" stroke-width="0.4584" d="M203.202,31.282l-91.232,26.29c0,0-2.091,0.628-1.569,1.569
			c0.523,0.941,2.196,0.314,4.078,0c1.882-0.313,90.815-24.604,90.815-24.604"/>
		<path fill="#D93927" stroke="#D93827" stroke-width="0.4584" d="M119.116,57.942l65.211,77.425c0,0,1.882,0.313,1.464-0.836
			l-64.54-77.158L119.116,57.942z"/>
		<path fill="#D93927" stroke="#D93827" stroke-width="0.4584" d="M112.911,59.638l62.946,74.997c0,0,2.091,1.046,2.405,0
			L114.48,59.141L112.911,59.638z"/>
		<path fill="none" stroke="#D93827" stroke-width="0.4584" d="M118.605,66.421c0,0-9.772-0.798-10.294-7.28
			c-0.523-6.483,9.884-11.252,16.287-5.207"/>
		<line fill="none" stroke="#D93827" stroke-width="0.9169" x1="172.632" y1="127.97" x2="176.737" y2="126.355"/>
		<path fill="#D93927" stroke="#D93827" stroke-width="0.4584" d="M185.851,187.02h-29.756c0,0,0.522-4.706,5.855-5.437
			c5.333-0.732,23.9-0.628,23.9-0.628h0.42c0,0,18.568-0.105,23.9,0.628c5.333,0.731,5.855,5.437,5.855,5.437h-29.756H185.851z"/>
		<path fill="#D93927" stroke="#D93827" stroke-width="0.4584" d="M186.061,135.1l2.658,2.672c0,0,0.627,0.941,0,3.869
			c-0.628,2.928-1.189,8.469-1.189,8.469s-0.483,6.169-0.589,8.155c-0.104,1.987,0.589,22.272,0.589,22.272l-5.19,0.413v-21.953
			c0,0-1.15-5.019-1.986-7.842c-0.837-2.824-4.392-14.743-4.392-14.743s-0.628-2.928,2.3-1.778c0,0,1.15,0.837,1.882,3.765
			c0.732,2.928,3.869,12.547,3.869,12.547l0.313-15.057L186.061,135.1z"/>
	</g>
	<path fill="#D93827" stroke="#D93827" stroke-width="0.2325" d="M163.659,369.914l-5.947-68.938l-20.085,1.732l5.947,68.939
		L163.659,369.914z M146.983,359.352c-0.645,0.056-1.216-0.466-1.277-1.167c-0.06-0.7,0.413-1.312,1.058-1.368
		c0.645-0.056,1.217,0.467,1.277,1.167C148.102,358.685,147.628,359.297,146.983,359.352z M148.427,362.451
		c0.06,0.7-0.413,1.313-1.058,1.368c-0.644,0.055-1.216-0.467-1.277-1.167c-0.06-0.701,0.413-1.313,1.058-1.368
		C147.795,361.229,148.366,361.751,148.427,362.451z M146.655,355.55c-0.645,0.056-1.216-0.467-1.277-1.167
		c-0.06-0.7,0.413-1.312,1.058-1.368c0.646-0.056,1.217,0.466,1.277,1.166C147.774,354.882,147.301,355.494,146.655,355.55z
		 M146.308,351.528c-0.645,0.056-1.217-0.467-1.277-1.167c-0.061-0.7,0.414-1.313,1.058-1.368c0.646-0.056,1.217,0.467,1.277,1.167
		C147.427,350.86,146.954,351.473,146.308,351.528z M151.23,367.667c-0.645,0.056-1.217-0.466-1.277-1.166
		c-0.061-0.7,0.413-1.312,1.058-1.368c0.644-0.055,1.217,0.466,1.277,1.167C152.349,366.999,151.875,367.611,151.23,367.667z
		 M151.105,363.497c-0.645,0.056-1.216-0.467-1.277-1.167c-0.06-0.7,0.413-1.312,1.058-1.368c0.646-0.056,1.217,0.466,1.277,1.167
		C152.224,362.829,151.75,363.442,151.105,363.497z M150.72,359.03c-0.645,0.056-1.216-0.466-1.277-1.167
		c-0.06-0.7,0.414-1.313,1.059-1.368c0.645-0.055,1.217,0.467,1.277,1.167C151.839,358.362,151.365,358.974,150.72,359.03z
		 M150.392,355.227c-0.645,0.056-1.217-0.467-1.277-1.167c-0.06-0.7,0.413-1.312,1.058-1.368c0.646-0.056,1.217,0.466,1.278,1.166
		C151.511,354.559,151.037,355.171,150.392,355.227z M150.045,351.206c-0.645,0.056-1.216-0.467-1.277-1.167
		c-0.06-0.7,0.413-1.312,1.058-1.368c0.645-0.056,1.217,0.467,1.277,1.167C151.164,350.537,150.69,351.15,150.045,351.206z
		 M150.229,346.252l3.224-0.278C153.453,345.974,152.157,349.772,150.229,346.252z M149.566,342.405
		c-0.1-1.163,0.688-2.18,1.757-2.272c1.074-0.093,2.024,0.775,2.124,1.938c0.101,1.163-0.687,2.181-1.761,2.274
		C150.618,344.436,149.666,343.568,149.566,342.405z M155.668,367.284c-0.645,0.056-1.217-0.466-1.277-1.167
		c-0.06-0.7,0.413-1.312,1.059-1.368c0.646-0.056,1.218,0.466,1.278,1.166C156.787,366.617,156.313,367.228,155.668,367.284z
		 M155.543,363.114c-0.645,0.056-1.217-0.467-1.277-1.167c-0.06-0.7,0.413-1.313,1.058-1.368c0.646-0.056,1.217,0.466,1.278,1.167
		C156.662,362.446,156.188,363.059,155.543,363.114z M155.157,358.647c-0.645,0.056-1.216-0.467-1.277-1.167
		c-0.06-0.7,0.413-1.312,1.058-1.368c0.645-0.056,1.217,0.467,1.277,1.167C156.277,357.979,155.803,358.591,155.157,358.647z
		 M154.83,354.844c-0.645,0.056-1.216-0.467-1.277-1.167c-0.06-0.7,0.413-1.312,1.058-1.368c0.646-0.056,1.217,0.466,1.278,1.166
		C155.949,354.176,155.475,354.789,154.83,354.844z M154.483,350.823c-0.645,0.056-1.216-0.467-1.277-1.167
		c-0.06-0.7,0.413-1.312,1.059-1.368c0.645-0.056,1.217,0.466,1.277,1.167C155.602,350.154,155.128,350.767,154.483,350.823z
		 M159.405,366.962c-0.646,0.056-1.217-0.466-1.278-1.166c-0.06-0.7,0.413-1.312,1.059-1.368c0.645-0.055,1.216,0.467,1.277,1.167
		C160.523,366.294,160.05,366.906,159.405,366.962z M159.28,362.792c-0.645,0.055-1.217-0.466-1.278-1.167
		c-0.06-0.701,0.413-1.313,1.059-1.369c0.646-0.055,1.217,0.467,1.278,1.167C160.399,362.124,159.926,362.736,159.28,362.792z
		 M156.356,345.266c-0.061-0.7,0.413-1.312,1.059-1.369c0.645-0.055,1.217,0.467,1.277,1.167c0.06,0.7-0.413,1.312-1.058,1.368
		C156.988,346.488,156.416,345.966,156.356,345.266z M158.895,358.325c-0.646,0.056-1.217-0.466-1.277-1.167
		c-0.061-0.7,0.413-1.312,1.059-1.368c0.646-0.055,1.217,0.466,1.277,1.167C160.014,357.657,159.54,358.269,158.895,358.325z
		 M158.567,354.522c-0.646,0.056-1.217-0.466-1.278-1.166c-0.06-0.7,0.413-1.312,1.059-1.368c0.645-0.056,1.217,0.466,1.277,1.166
		C159.686,353.854,159.212,354.467,158.567,354.522z M158.22,350.501c-0.646,0.056-1.217-0.467-1.277-1.168
		c-0.061-0.7,0.413-1.312,1.059-1.368c0.646-0.056,1.217,0.467,1.277,1.167C159.339,349.832,158.865,350.445,158.22,350.501z
		 M155.943,324.11c0.645-0.055,1.217,0.466,1.277,1.166c0.061,0.7-0.413,1.313-1.059,1.369c-0.646,0.056-1.217-0.467-1.278-1.167
		C154.824,324.778,155.297,324.166,155.943,324.11z M156.325,328.545c0.646-0.056,1.217,0.467,1.278,1.166
		c0.06,0.7-0.413,1.312-1.059,1.368c-0.646,0.056-1.217-0.466-1.277-1.167C155.206,329.214,155.68,328.6,156.325,328.545z
		 M156.647,332.274c0.645-0.056,1.217,0.466,1.278,1.166c0.06,0.7-0.413,1.313-1.059,1.369c-0.646,0.055-1.217-0.466-1.277-1.167
		C155.528,332.942,156.002,332.33,156.647,332.274z M156.781,336.547c0.645-0.056,1.217,0.467,1.277,1.167
		c0.061,0.7-0.413,1.313-1.059,1.369c-0.645,0.055-1.216-0.467-1.277-1.167C155.662,337.215,156.135,336.603,156.781,336.547z
		 M154.762,343.72l-0.302-3.5C154.461,340.22,157.982,341.679,154.762,343.72z M152.206,324.433
		c0.646-0.056,1.217,0.466,1.278,1.166c0.061,0.701-0.413,1.313-1.059,1.369c-0.645,0.056-1.216-0.467-1.277-1.167
		C151.088,325.1,151.561,324.488,152.206,324.433z M152.589,328.867c0.645-0.056,1.217,0.467,1.277,1.167
		c0.06,0.701-0.413,1.313-1.058,1.368c-0.645,0.056-1.217-0.466-1.277-1.167C151.47,329.536,151.943,328.923,152.589,328.867z
		 M152.91,332.596c0.646-0.056,1.217,0.467,1.277,1.166c0.06,0.701-0.413,1.312-1.059,1.369c-0.645,0.055-1.216-0.467-1.277-1.167
		C151.792,333.264,152.265,332.652,152.91,332.596z M152.806,338.475l-3.224,0.278C149.582,338.754,150.879,334.957,152.806,338.475
		z M147.768,324.815c0.645-0.056,1.217,0.466,1.277,1.166c0.061,0.7-0.413,1.313-1.059,1.368c-0.645,0.056-1.217-0.467-1.277-1.167
		C146.649,325.483,147.123,324.871,147.768,324.815z M148.151,329.25c0.645-0.056,1.217,0.467,1.277,1.167
		c0.06,0.7-0.414,1.313-1.059,1.368c-0.645,0.055-1.217-0.467-1.277-1.167C147.032,329.918,147.506,329.306,148.151,329.25z
		 M148.472,332.979c0.645-0.055,1.217,0.467,1.278,1.167c0.06,0.701-0.414,1.312-1.059,1.368c-0.645,0.055-1.216-0.467-1.277-1.167
		C147.354,333.647,147.827,333.035,148.472,332.979z M148.114,341.175l0.302,3.499C148.416,344.674,144.894,343.216,148.114,341.175
		z M144.032,325.138c0.645-0.055,1.217,0.466,1.277,1.166c0.061,0.701-0.413,1.313-1.058,1.369
		c-0.645,0.056-1.216-0.467-1.277-1.167C142.913,325.806,143.387,325.193,144.032,325.138z M144.414,329.572
		c0.645-0.055,1.217,0.467,1.277,1.167c0.061,0.7-0.413,1.312-1.058,1.368c-0.645,0.056-1.216-0.466-1.277-1.167
		C143.296,330.241,143.769,329.628,144.414,329.572z M144.736,333.302c0.646-0.056,1.217,0.467,1.277,1.167
		c0.061,0.7-0.413,1.312-1.058,1.367c-0.645,0.056-1.216-0.466-1.277-1.166C143.618,333.97,144.091,333.357,144.736,333.302z
		 M144.87,337.575c0.645-0.056,1.217,0.466,1.277,1.167c0.06,0.7-0.413,1.312-1.058,1.368c-0.646,0.056-1.218-0.466-1.278-1.167
		C143.75,338.242,144.225,337.63,144.87,337.575z M145.504,344.925c0.645-0.056,1.217,0.466,1.277,1.167
		c0.06,0.7-0.414,1.312-1.059,1.368c-0.645,0.056-1.217-0.466-1.278-1.166C144.384,345.593,144.859,344.981,145.504,344.925z
		 M147.275,365.455c0.645-0.055,1.217,0.466,1.277,1.167c0.06,0.7-0.414,1.312-1.059,1.368c-0.646,0.056-1.218-0.466-1.278-1.166
		C146.155,366.122,146.629,365.51,147.275,365.455z"/>
	<g>
		
			<line fill="none" stroke="#D93827" stroke-width="0.9229" stroke-linecap="round" x1="127.452" y1="311.806" x2="27.912" y2="293.996"/>
		
			<line fill="none" stroke="#D93827" stroke-width="0.9229" stroke-linecap="round" x1="74.046" y1="349.007" x2="92.28" y2="249.587"/>
		
			<line fill="none" stroke="#D93827" stroke-width="0.9229" stroke-linecap="round" x1="84.092" y1="348.89" x2="63.987" y2="249.787"/>
		
			<line fill="none" stroke="#D93827" stroke-width="0.9229" stroke-linecap="round" x1="73.302" y1="247.947" x2="92.964" y2="347.099"/>
		
			<line fill="none" stroke="#D93827" stroke-width="0.9229" stroke-linecap="round" x1="102.853" y1="342.971" x2="46.452" y2="259.063"/>
		
			<line fill="none" stroke="#D93827" stroke-width="0.9229" stroke-linecap="round" x1="64.574" y1="347.099" x2="83.133" y2="247.899"/>
		
			<line fill="none" stroke="#D93827" stroke-width="0.9229" stroke-linecap="round" x1="53.51" y1="342.643" x2="111.211" y2="259.656"/>
		
			<line fill="none" stroke="#D93827" stroke-width="0.9229" stroke-linecap="round" x1="110.457" y1="337.855" x2="54.18" y2="253.868"/>
		
			<line fill="none" stroke="#D93827" stroke-width="0.9229" stroke-linecap="round" x1="103.393" y1="254.216" x2="45.811" y2="337.292"/>
		
			<line fill="none" stroke="#D93827" stroke-width="0.9229" stroke-linecap="round" x1="38.567" y1="329.808" x2="123.304" y2="274.621"/>
		
			<line fill="none" stroke="#D93827" stroke-width="0.9229" stroke-linecap="round" x1="117.739" y1="330.608" x2="34.013" y2="273.945"/>
		
			<line fill="none" stroke="#D93827" stroke-width="0.9229" stroke-linecap="round" x1="27.913" y1="302.9" x2="127.452" y2="285.078"/>
		
			<line fill="none" stroke="#D93827" stroke-width="0.9229" stroke-linecap="round" x1="29.499" y1="285.078" x2="129.036" y2="302.9"/>
		
			<line fill="none" stroke="#D93827" stroke-width="0.9229" stroke-linecap="round" x1="129.036" y1="293.986" x2="29.499" y2="311.813"/>
		
			<line fill="none" stroke="#D93827" stroke-width="0.9229" stroke-linecap="round" x1="34.013" y1="322.942" x2="117.739" y2="266.277"/>
		
			<line fill="none" stroke="#D93827" stroke-width="0.9229" stroke-linecap="round" x1="39.492" y1="265.938" x2="122.443" y2="322.942"/>
		<circle fill="none" stroke="#231F20" stroke-width="0.4615" cx="78.475" cy="298.443" r="54.973"/>
		<circle fill="none" stroke="#D93827" stroke-width="1.8459" cx="78.475" cy="298.443" r="50.756"/>
		<circle fill="none" stroke="#D93827" stroke-width="4.1532" cx="78.475" cy="298.443" r="3.336"/>
		<circle fill="none" stroke="#D93827" stroke-width="8.7679" cx="78.475" cy="298.443" r="57.222"/>
	</g>
	<g>
		<circle fill="none" stroke="#D93827" stroke-width="2.4484" cx="316.099" cy="269.003" r="52.255"/>
		<path fill="#D93827" d="M337.584,268.86c4.102,0.269,12.17,1.154,16.485,4.026c5.947,3.959,6.744-6.603,6.744-6.603
			s0.298-22.311-9.316-18.812c-9.616,3.496-20.104,8.518-20.104,8.518s-1.563,0.66-0.377,2.391c1.186,1.731,3.524,8.724,3.524,8.724
			S334.692,269.238,337.584,268.86"/>
		<path fill="none" stroke="#D93827" stroke-width="0.3354" d="M337.584,268.86"/>
		<path fill="none" stroke="#D93827" stroke-width="0.3354" d="M335.046,268.744"/>
		<path fill="#D93827" d="M324.202,251.794c0,0,3.227-11.621,7.084-14.928c3.857-3.309,3.158-5.658-1.701-7.98
			c-4.86-2.324-13.085-3.79-17.316-2.632c-4.234,1.16-5.385,4.463-4.954,8.559c0.429,4.097,2.674,15.823,2.674,15.823
			s0.671,2.435,3.768,1.203c3.098-1.232,7.797,0.075,7.797,0.075S323.808,253.115,324.202,251.794z"/>
		<path fill="#D93827" d="M302.071,257.283c0,0-6.519-4.689-8.474-7.34c-1.954-2.652-3.068-7.933-6.836-6.722
			c-3.766,1.211-10.565,13.431-11.019,18.79c-0.456,5.36,8.416,7.517,8.942,7.684c0.526,0.168,11.439,2.589,11.439,2.589
			s2.705-0.005,2.784-2.973c0.078-2.969,2.784-9.928,2.784-9.928S302.682,257.73,302.071,257.283z"/>
		<path fill="#D93827" d="M312.602,286.914c0,0-6.716-1.952-7.556-3.862c-0.839-1.909-2.923-1.126-5.397,1.176
			c-2.473,2.301-12.015,4.662-12.481,4.61c-0.466-0.053-4.912,2.681-1.246,7.23c3.664,4.551,15.181,17.789,20.107,9.318
			c4.926-8.472,7.921-15.434,7.921-15.434S315.211,287.796,312.602,286.914z"/>
		<path fill="#D93827" d="M332.707,277.784c0,0-2.169,5.585-6.781,6.722c0,0-3.279,0.288,0.178,4.586
			c3.456,4.299,3.013,12.945,1.684,15.901c-1.331,2.956,3.391,3.593,6.006,3.27c2.614-0.324,12.72-4.149,15.598-8.928
			c0,0,2.795-4.516-0.216-7.794c-3.009-3.28-13.663-12.862-13.663-12.862S333.326,276.502,332.707,277.784z"/>
		<path fill="#D93827" d="M352.406,231.406l-23.036,24.767c0,0-1.034,0.515-0.383-0.919c0.65-1.434,22.761-24.471,22.761-24.471
			L352.406,231.406z"/>
		<path fill="#D93827" d="M347.555,227.262l-19.847,27.388c0,0-0.964,0.638-0.492-0.865c0.471-1.502,19.607-27.063,19.607-27.063
			L347.555,227.262z"/>
		<path fill="#D93827" d="M342.24,223.753l-16.36,29.604c0,0-0.878,0.75-0.593-0.799c0.286-1.549,16.164-29.25,16.164-29.25
			L342.24,223.753z"/>
		<path fill="#D93827" d="M336.531,220.905L323.9,252.281c0,0-0.781,0.851-0.687-0.721c0.094-1.572,12.478-31.001,12.478-31.001
			L336.531,220.905z"/>
		<path fill="#D93827" d="M330.517,218.772l-8.713,32.682c0,0-0.671,0.94-0.77-0.631c-0.098-1.572,8.607-32.291,8.607-32.291
			L330.517,218.772z"/>
		<path fill="#D93827" d="M324.288,217.388l-4.666,33.501c0,0-0.552,1.014-0.84-0.534c-0.29-1.548,4.608-33.099,4.608-33.099
			L324.288,217.388z"/>
		<path fill="#D93827" d="M317.937,216.774l-0.548,33.82c0,0-0.423,1.073-0.899-0.427c-0.476-1.5,0.539-33.413,0.539-33.413
			L317.937,216.774z"/>
		<path fill="#D93827" d="M311.559,216.939l3.578,33.635c0,0-0.29,1.118-0.945-0.314c-0.656-1.433-3.537-33.232-3.537-33.232
			L311.559,216.939z"/>
		<path fill="#D93827" d="M305.248,217.881l7.65,32.949c0,0-0.152,1.144-0.976-0.197c-0.824-1.342-7.559-32.553-7.559-32.553
			L305.248,217.881z"/>
		<path fill="#D93827" d="M299.099,219.583l11.608,31.771c0,0-0.011,1.154-0.992-0.076c-0.982-1.232-11.471-31.389-11.471-31.389
			L299.099,219.583z"/>
		<path fill="#D93827" d="M293.203,222.022l15.394,30.121c0,0,0.13,1.147-0.995,0.045c-1.125-1.103-15.211-29.756-15.211-29.756
			L293.203,222.022z"/>
		<path fill="#D93827" d="M287.648,225.163l18.949,28.018c0,0,0.269,1.123-0.981,0.167c-1.251-0.958-18.724-27.681-18.724-27.681
			L287.648,225.163z"/>
		<path fill="#D93827" d="M282.518,228.956l22.223,25.501c0,0,0.404,1.081-0.954,0.284c-1.359-0.797-21.957-25.192-21.957-25.192
			L282.518,228.956z"/>
		<path fill="#D93827" d="M277.887,233.345l25.166,22.604c0,0,0.532,1.025-0.912,0.399c-1.446-0.626-24.865-22.328-24.865-22.328
			L277.887,233.345z"/>
		<path fill="#D93827" d="M273.828,238.269l27.732,19.367c0,0,0.653,0.952-0.858,0.506c-1.51-0.444-27.4-19.131-27.4-19.131
			L273.828,238.269z"/>
		<path fill="#D93827" d="M270.396,243.65l29.887,15.843c0,0,0.764,0.865-0.789,0.607c-1.553-0.257-29.527-15.649-29.527-15.649
			L270.396,243.65z"/>
		<path fill="#D93827" d="M267.648,249.407l31.593,12.084c0,0,0.865,0.764-0.709,0.698c-1.573-0.066-31.215-11.933-31.215-11.933
			L267.648,249.407z"/>
		<path fill="#D93827" d="M265.621,255.458l32.831,8.143c0,0,0.952,0.654-0.618,0.779c-1.571,0.127-32.435-8.039-32.435-8.039
			L265.621,255.458z"/>
		<path fill="#D93827" d="M264.346,261.71l33.579,4.08c0,0,1.024,0.535-0.518,0.852c-1.543,0.316-33.174-4.028-33.174-4.028
			L264.346,261.71z"/>
		<path fill="#D93827" d="M263.844,268.071l33.825-0.041c0,0,1.081,0.405-0.411,0.907c-1.493,0.501-33.418,0.044-33.418,0.044
			L263.844,268.071z"/>
		<path fill="#D93827" d="M264.12,274.446l33.568-4.164c0,0,1.123,0.272-0.298,0.951c-1.42,0.679-33.163,4.115-33.163,4.115
			L264.12,274.446z"/>
		<path fill="#D93827" d="M265.17,280.739l32.811-8.223c0,0,1.146,0.132-0.179,0.98c-1.327,0.847-32.415,8.127-32.415,8.127
			L265.17,280.739z"/>
		<path fill="#D93827" d="M266.98,286.859l31.564-12.162c0,0,1.154-0.008-0.059,0.993c-1.213,1.004-31.182,12.017-31.182,12.017
			L266.98,286.859z"/>
		<path fill="#D93827" d="M269.522,292.711l29.848-15.917c0,0,1.145-0.15,0.062,0.993c-1.081,1.144-29.484,15.728-29.484,15.728
			L269.522,292.711z"/>
		<path fill="#D93827" d="M272.759,298.21l27.684-19.434c0,0,1.118-0.288,0.182,0.976c-0.934,1.268-27.348,19.205-27.348,19.205
			L272.759,298.21z"/>
		<path fill="#D93827" d="M276.643,303.274l25.109-22.664c0,0,1.075-0.422,0.3,0.949c-0.772,1.37-24.804,22.393-24.804,22.393
			L276.643,303.274z"/>
		<path fill="#D93827" d="M281.112,307.827l22.16-25.555c0,0,1.016-0.55,0.415,0.904c-0.6,1.455-21.89,25.25-21.89,25.25
			L281.112,307.827z"/>
		<path fill="#D93827" d="M286.104,311.801l18.881-28.065c0,0,0.94-0.669,0.52,0.846c-0.417,1.517-18.649,27.731-18.649,27.731
			L286.104,311.801z"/>
		<path fill="#D93827" d="M291.545,315.137l15.319-30.157c0,0,0.852-0.779,0.62,0.777c-0.23,1.557-15.131,29.796-15.131,29.796
			L291.545,315.137z"/>
		<path fill="#D93827" d="M297.349,317.785l11.53-31.799c0,0,0.752-0.877,0.71,0.695c-0.038,1.573-11.386,31.419-11.386,31.419
			L297.349,317.785z"/>
		<path fill="#D93827" d="M303.435,319.705l7.57-32.967c0,0,0.638-0.961,0.789,0.603c0.154,1.567-7.473,32.573-7.473,32.573
			L303.435,319.705z"/>
		<path fill="#D93827" d="M309.709,320.87l3.495-33.644c0,0,0.516-1.031,0.857,0.503c0.343,1.537-3.448,33.24-3.448,33.24
			L309.709,320.87z"/>
		<path fill="#D93827" d="M316.077,321.263l-0.631-33.819c0,0,0.387-1.087,0.912,0.394c0.527,1.484,0.628,33.413,0.628,33.413
			L316.077,321.263z"/>
		<path fill="#D93827" d="M322.446,320.875l-4.748-33.491c0,0,0.251-1.126,0.954,0.281c0.704,1.408,4.695,33.088,4.695,33.088
			L322.446,320.875z"/>
		<path fill="#D93827" d="M328.721,319.715l-8.794-32.663c0,0,0.112-1.148,0.981,0.163c0.871,1.312,8.693,32.267,8.693,32.267
			L328.721,319.715z"/>
		<path fill="#D93827" d="M334.806,317.797l-12.709-31.347c0,0-0.028-1.152,0.993,0.043c1.023,1.195,12.561,30.967,12.561,30.967
			L334.806,317.797z"/>
		<path fill="#D93827" d="M340.614,315.154l-16.435-29.565c0,0-0.169-1.141,0.992-0.078c1.162,1.062,16.24,29.205,16.24,29.205
			L340.614,315.154z"/>
		<path fill="#D93827" d="M346.056,311.821l-19.916-27.34c0,0-0.305-1.112,0.974-0.2c1.283,0.915,19.678,27.009,19.678,27.009
			L346.056,311.821z"/>
		<path fill="#D93827" d="M351.05,307.851l-23.099-24.71c0,0-0.438-1.067,0.944-0.317c1.384,0.749,22.823,24.409,22.823,24.409
			L351.05,307.851z"/>
		<path fill="#D93827" d="M355.524,303.302l-25.939-21.711c0,0-0.565-1.005,0.899-0.429c1.465,0.575,25.628,21.446,25.628,21.446
			L355.524,303.302z"/>
		<path fill="#D93827" d="M359.411,298.242l-28.391-18.39c0,0-0.683-0.928,0.839-0.535c1.524,0.392,28.05,18.163,28.05,18.163
			L359.411,298.242z"/>
		<path fill="#D93827" d="M362.651,292.743l-30.421-14.792c0,0-0.79-0.837,0.769-0.633c1.56,0.204,30.054,14.61,30.054,14.61
			L362.651,292.743z"/>
		<path fill="#D93827" d="M365.198,286.893l-31.996-10.975c0,0-0.888-0.735,0.684-0.722c1.573,0.013,31.611,10.839,31.611,10.839
			L365.198,286.893z"/>
		<path fill="#D93827" d="M367.012,280.776l-33.096-6.994c0,0-0.969-0.621,0.594-0.801c1.562-0.179,32.695,6.905,32.695,6.905
			L367.012,280.776z"/>
		<path fill="#D93827" d="M368.068,274.483l-33.701-2.908c0,0-1.038-0.498,0.492-0.867c1.529-0.368,33.292,2.869,33.292,2.869
			L368.068,274.483z"/>
		<path fill="#D93827" d="M368.348,268.108l-33.804,1.221c0,0-1.092-0.368,0.382-0.921c1.472-0.551,33.394-1.209,33.394-1.209
			L368.348,268.108z"/>
		<path fill="#D93827" d="M367.85,261.746l-33.403,5.333c0,0-1.129-0.233,0.266-0.961c1.395-0.727,32.998-5.27,32.998-5.27
			L367.85,261.746z"/>
		<path fill="#D93827" d="M366.581,255.493l-32.506,9.364c0,0-1.148-0.093,0.148-0.985c1.296-0.892,32.109-9.253,32.109-9.253
			L366.581,255.493z"/>
		<path fill="#D93827" d="M364.557,249.442l-31.121,13.255c0,0-1.151,0.047,0.026-0.996c1.177-1.043,30.745-13.097,30.745-13.097
			L364.557,249.442z"/>
		<path fill="#D93827" d="M361.812,243.681l-29.275,16.95c0,0-1.136,0.185-0.095-0.993c1.041-1.179,28.918-16.746,28.918-16.746
			L361.812,243.681z"/>
		<path fill="#D93827" d="M357.299,237.435l-26.99,20.391c0,0-1.106,0.323-0.215-0.973c0.888-1.296,26.661-20.146,26.661-20.146
			L357.299,237.435z"/>
		<circle fill="none" stroke="#D93827" stroke-width="0.3354" cx="316.614" cy="269.168" r="35.183"/>
		<path fill="#D93827" d="M282.158,250.988l-15.032-5.247c0,0,6.739-19.901,2.003-21.396c-4.738-1.497-9.601,9.802-11.437,15.249
			c-1.835,5.447-11.062,32.535-8.978,36.292c2.085,3.755,6.398,1.437,10.1-8.039c3.702-9.477,3.329-8.914,3.329-8.914l17.578,4.836"
			/>
		<circle fill="#D93827" stroke="#D93827" stroke-width="0.1953" cx="316.614" cy="269.167" r="15.832"/>
	</g>
	<g>
		<path fill="#D93827" stroke="#D93827" stroke-width="0.1992" d="M231.636,320.844l5.771,13.061
			c1.095,1.985,2.647,1.226,2.647,1.226c1.04-0.605,0.324-3.047,0.324-3.047l-5.557-12.575l-0.027-0.061l0.027,0.061l2.308-1.02
			l-0.483-1.094l-7.776,3.436l0.456,1.033L231.636,320.844z M233.623,321.173c0.348-0.154,1.658,2.047,2.925,4.915
			c1.268,2.868,2.013,5.319,1.665,5.472c-0.348,0.154-1.657-2.047-2.925-4.916C234.021,323.776,233.275,321.326,233.623,321.173z"/>
		<path fill="#D93827" stroke="#D93827" stroke-width="0.1992" d="M236.154,316.262l-0.741-0.135l0.57-0.252l-0.171-0.387
			l-0.615,0.272l-0.101-0.228l0.615-0.272l-0.161-0.365l-0.82,0.362l-0.101-0.228l0.82-0.362l-0.151-0.342l-0.888,0.393
			l-0.182,0.081l-0.131-0.296l1.071-0.473l-0.171-0.387l-1.139,0.503l-0.121-0.274l1.139-0.503l-0.181-0.41l-1.207,0.534
			l-0.151-0.342l1.207-0.534l-0.161-0.365l-1.253,0.554l-0.171-0.387l1.253-0.554l-0.131-0.296l-1.139,0.503l-0.141-0.319
			l1.139-0.503l-0.141-0.319l-1.025,0.453l-0.151-0.342l1.025-0.453l-0.111-0.25l-0.866,0.383l-0.121-0.273l0.866-0.383
			l-0.121-0.273l-0.752,0.332l-0.121-0.274l0.752-0.332l-0.161-0.364l-0.456,0.201l-0.091,0.04l-0.101-0.228l0.547-0.242
			l-4.953-11.208c0,0-1.648-2.866-4.959-1.485c-0.174,0.073-0.339,0.15-0.495,0.231l-0.275,0.113
			c-3.037,1.548-2.065,4.58-2.065,4.58l4.953,11.208l0.547-0.242l0.101,0.228l-0.091,0.04l-0.456,0.201l0.161,0.365l0.752-0.332
			l0.121,0.273l-0.752,0.332l0.121,0.274l0.866-0.383l0.121,0.274l-0.866,0.383l0.111,0.25l1.025-0.453l0.151,0.342l-1.025,0.453
			l0.141,0.319l1.139-0.503l0.141,0.319l-1.139,0.503l0.131,0.296l1.253-0.554l0.171,0.387l-1.253,0.554l0.161,0.364l1.207-0.534
			l0.151,0.342l-1.207,0.534l0.181,0.41l1.139-0.503l0.121,0.274l-1.139,0.503l0.171,0.387l1.071-0.473l0.131,0.296l-0.182,0.081
			l-0.888,0.393l0.151,0.342l0.82-0.362l0.101,0.228l-0.82,0.362l0.161,0.365l0.615-0.272l0.101,0.228l-0.615,0.272l0.171,0.387
			l0.57-0.252l-0.399,0.639l0.171,0.387l7.791-3.443L236.154,316.262z M232.04,317.612c-0.906,0.4-1.748,0.48-1.882,0.178
			c-0.133-0.302,0.493-0.871,1.399-1.272c0.906-0.4,1.749-0.48,1.882-0.178C233.573,316.642,232.946,317.212,232.04,317.612z"/>
		
			<ellipse transform="matrix(-0.4042 -0.9147 0.9147 -0.4042 35.4989 657.3311)" fill="#D93827" stroke="#D93827" stroke-width="0.0884" cx="231.841" cy="317.104" rx="0.199" ry="1.059"/>
	</g>
	<g>
		<path fill="#D93827" stroke="#D93827" stroke-width="0.3466" d="M99.093,174.932l-17.741-16.55c0,0-3.402-3.805-0.25-7.185
			c3.153-3.379,6.273-0.627,6.273-0.627l18.417,17.181L99.093,174.932z"/>
		<path fill="#D93827" stroke="#D93827" stroke-width="0.3466" d="M98.541,175.523l-1.34,1.436c0,0-0.811,0.192-1.903-0.669
			c-1.093-0.862-21.84-16.899-21.84-16.899s3.299-3.875,6.329-1.364C82.817,160.538,98.541,175.523,98.541,175.523z"/>
		<path fill="#D93827" stroke="#D93827" stroke-width="0.3466" d="M106.405,167.096l1.34-1.436c0,0,0.135-0.822-0.8-1.852
			c-0.935-1.03-18.373-20.615-18.373-20.615s-3.636,3.559-0.922,6.408C90.365,152.448,106.405,167.096,106.405,167.096z"/>
		<path fill="#D93827" stroke="#D93827" stroke-width="0.3466" d="M78.336,156.534l-12.165-11.349c0,0-3.999,4.626-3.154,5.414
			c0.845,0.788,9.597,8.005,9.597,8.005S74.616,155.609,78.336,156.534z"/>
		<path fill="#D93827" stroke="#D93827" stroke-width="0.3466" d="M86.059,148.255l-12.165-11.349c0,0,4.337-4.31,5.182-3.522
			c0.845,0.788,8.651,9.019,8.651,9.019S84.879,144.609,86.059,148.255z"/>
		<path fill="#D93827" stroke="#D93827" stroke-width="0.3466" d="M66.653,144.668l6.699-7.181l12.165,11.349
			c0,0-3.356-0.129-5.292,1.777c-1.936,1.907-1.406,5.403-1.406,5.403L66.653,144.668z"/>
	</g>
	<path fill="#D93827" stroke="#D93827" stroke-width="0.4776" d="M225.741,187.132c-8.018-1.894-16.472-1.316-10.549-11.483
		c5.923-10.167,5.158-20.989,5.158-20.989c2.69-20.568,10.483-30.68,13.779-36.055c3.296-5.375,3.817-11.011,3.817-11.011
		c-1.103-0.616-0.219-2.742,0.658-2.911c0.877-0.169,0.592-1.458,0.592-1.458c-0.841-3.862,5.846-1.494,5.846-1.494l0.154,0.035
		c0,0,7.055,0.738,4.635,3.863c0,0-0.811,1.041-0.092,1.571c0.719,0.53,0.603,2.829-0.658,2.911c0,0-1.953,5.312-1.289,11.582
		c0.664,6.27,3.351,18.751-3.065,38.476c0,0-5.345,9.441-4.37,21.167c0.975,11.726-6.409,7.569-14.462,5.831L225.741,187.132z"/>
	<g>
		
			<rect x="65.056" y="188.329" transform="matrix(-0.145 0.9894 -0.9894 -0.145 293.3528 132.8268)" fill="#D93827" stroke="#D93827" stroke-width="0.3086" width="48.457" height="9.671"/>
		
			<rect x="73.108" y="183.562" transform="matrix(-0.145 0.9894 -0.9894 -0.145 276.7841 143.4733)" fill="#D93827" stroke="#D93827" stroke-width="0.3086" width="6.584" height="15.535"/>
		<path fill="#D93827" stroke="#D93827" stroke-width="0.3086" d="M67.972,190.483c0,0,0.729-2.311-0.297-2.5
			c0,0,0.124-1.113-0.536-1.131c0,0-0.572-0.357-0.779,1.056l-0.529-0.116c0,0,0.256-1.213-0.331-1.2c0,0-0.433-0.238-0.7,1.049
			l-0.523-0.155c0,0,0.214-1.195-0.265-1.12c0,0-0.456-0.351-0.684,0.942l-0.458-0.067c0,0,0.281-0.856-0.182-0.885
			s-0.907,0.335-1.453,1.932c0,0-1.207-4.271-3.536-1.415c-2.329,2.856-2.07,2.153-3.656-1.394c0,0-0.608-2.507-5.273,2.191
			c0,0-0.257,1.219-3.383-4.059c0,0-0.499-1.384-4.633,2.611c0,0-0.462,1.024-3.059-3.607c0,0-1.038-1.166-3.971,2.616
			c0,0-0.699,0.248-1.271-0.108c0,0,1.023,1.636,2.436,0.573c0.035-0.026,0.069-0.054,0.105-0.083
			c1.467-1.228,2.125-2.262,2.589-0.907c0.464,1.355,2.154,4.995,4.115,2.786l2.233-1.934c0,0,0.844-0.968,1.352,0.354
			c0.508,1.322,2.34,4.788,4.484,3.192c0,0,3.062-3.334,3.444-1.952c0.382,1.382,1.939,5.392,4.05,2.699
			c0,0,2.606-3.946,2.653-0.274c0,0,0.024,2.499,1.115,2.503c0,0,0.293,0.394,0.477-0.593c0,0,0.275-0.545,0.524-0.118
			c0,0-0.14,0.955,0.288,0.959c0,0,0.399,0.467,0.644-0.667l0.491,0.111c0,0-0.077,0.791,0.421,0.853c0,0,0.552,0.225,0.621-0.778
			l0.458,0.067c0,0-0.178,0.946,0.294,0.919c0,0,0.508,0.524,0.764-0.959l0.344,0.05c0,0-0.245,1.139,0.41,1.193
			C66.768,193.117,67.698,193.952,67.972,190.483z"/>
	</g>
	<g>
		<path fill="#D93827" stroke="#D93827" stroke-width="0.24" d="M113.077,175.784c0,0,4.264,1.093-8.166-11.159
			c-12.43-12.252-26.072-26.789-33.451-30.518l-0.747-0.79c0,0,0.627-1.67-1.727-1.304l-7.659-11.201l0.48-2.424
			c0,0-5.584-11.856-6.698-12.274c0,0-2.767,0.173-1.029,3.321c1.737,3.149,12.215,24.705,12.215,24.705s-0.601,0.958,0.376,1.785
			c0.977,0.827,1.32,0.174,1.32,0.174s20.896,16.432,23.959,20.491C91.951,156.589,108.726,176.032,113.077,175.784z"/>
		<polygon fill="#D93827" stroke="#D93827" stroke-width="0.24" points="56.393,105.836 62.208,117.049 66.272,114.723 
			60.293,103.581 		"/>
	</g>
	<g>
		<path fill="none" stroke="#D93827" stroke-width="0.5662" d="M186.853,133.668l16.372,1.257c3.741,0.287,7.008-2.513,7.295-6.255
			l3.229-42.059c0.287-3.741-2.514-7.008-6.255-7.295l-16.372-1.257c-3.741-0.287-7.008,2.513-7.295,6.254l-3.229,42.059
			C180.311,130.114,183.112,133.38,186.853,133.668z M185.999,87.461c0.287-3.741,3.553-6.541,7.295-6.254l11.573,0.889
			c3.741,0.287,6.541,3.553,6.254,7.294l-2.828,36.837c-0.287,3.741-3.553,6.542-7.294,6.255l-11.574-0.889
			c-3.741-0.287-6.542-3.553-6.255-7.295L185.999,87.461z"/>
		<path fill="#D93827" stroke="#D93827" stroke-width="0.5662" d="M189.425,131.593l11.574,0.889
			c3.741,0.287,7.007-2.513,7.294-6.255l2.828-36.837c0.287-3.741-2.513-7.007-6.254-7.294l-11.573-0.889
			c-3.741-0.287-7.008,2.513-7.295,6.254l-2.828,36.837C182.883,128.04,185.684,131.306,189.425,131.593z M197.747,129.535
			l-5.222-0.401c-0.429-0.033-0.75-0.407-0.717-0.836c0.033-0.429,0.407-0.75,0.836-0.717l5.222,0.401
			c0.429,0.033,0.75,0.407,0.717,0.836C198.549,129.247,198.175,129.568,197.747,129.535z M198.901,83.057
			c1.286,0.099,2.249,1.221,2.15,2.508c-0.099,1.286-1.221,2.248-2.507,2.15c-1.286-0.099-2.249-1.221-2.15-2.507
			C196.492,83.921,197.615,82.958,198.901,83.057z M187.703,89.296l20.606,1.582l-2.514,32.744l-20.606-1.582L187.703,89.296z"/>
		
			<rect x="187.69" y="91.171" transform="matrix(0.9971 0.0765 -0.0765 0.9971 8.7265 -14.7485)" fill="#D93827" stroke="#D93827" stroke-width="0.5116" width="18.119" height="30.576"/>
		<path fill="#D93827" stroke="#D93827" stroke-width="0.1795" d="M196.558,128.511l-2.704-0.208
			c-0.222-0.017-0.407,0.036-0.413,0.12c-0.006,0.083,0.168,0.164,0.39,0.181l2.704,0.208c0.222,0.017,0.406-0.036,0.413-0.12
			C196.954,128.609,196.78,128.528,196.558,128.511z"/>
		<circle fill="#D93827" stroke="#D93827" stroke-width="0.4052" cx="198.722" cy="85.386" r="1.672"/>
	</g>
	<g>
		
			<ellipse transform="matrix(-0.9852 -0.1712 0.1712 -0.9852 336.5584 719.8854)" fill="#D93827" stroke="#D93827" stroke-width="0.1945" cx="199.313" cy="345.434" rx="3.805" ry="3.397"/>
		<path fill="#D93827" stroke="#D93827" stroke-width="0.2718" d="M203.062,346.085l6.187-35.611l-7.497-1.303l-6.187,35.611
			L203.062,346.085z M199.401,337.519l0.87,0.151l0.14-0.804l1.071,0.186l-0.128,0.736l0.67,0.116l-0.186,1.072l-0.67-0.117
			l-0.163,0.937l-1.138-0.198l0.151-0.87l-0.803-0.14L199.401,337.519z"/>
		<path fill="#D93827" stroke="#D93827" stroke-width="0.2718" d="M214.13,324.976c2.202-5.134,1.31-10.714,1.31-10.714
			c-2.289-0.719-7.741,10.424-7.741,10.424l-3.64,20.952C204.059,345.638,211.928,330.11,214.13,324.976z M214.776,320.468
			c0,0-0.532,4.252-2.144,6.385C212.632,326.853,212.681,323,214.776,320.468z"/>
		<path fill="#D93827" stroke="#D93827" stroke-width="0.2718" d="M193.812,362.545c1.831,1.767,5.442-3.536,5.442-3.536
			l-3.481-0.605l0.872-5.021c0,0,0.334-1.528,2.797-0.617c0,0,1.423,0.937-0.037,2.2c0,0-0.408,0.364-0.177,1.014
			c0,0,3.507,0.46,2.271-6.719c0,0-1.973,1.037-3.754,0.176c-1.781-0.862-2.233-1.836-2.233-1.836S191.981,360.779,193.812,362.545z
			 M194.979,353.646c0.887,1.969-1.122,6.459-1.122,6.459C193.803,359.819,194.979,353.646,194.979,353.646z"/>
		<path fill="#D93827" stroke="#D93827" stroke-width="0.2718" d="M185.36,327.839l11.848,2.058l0.359-2.067l-17.939-3.117
			C181.132,326.776,185.36,327.839,185.36,327.839z M187.603,327.332c0.675,0.117,1.205,0.308,1.184,0.427
			c-0.021,0.12-0.584,0.121-1.259,0.004c-0.675-0.117-1.205-0.309-1.184-0.428C186.365,327.216,186.929,327.215,187.603,327.332z"/>
		<path fill="#D93827" stroke="#D93827" stroke-width="0.2003" d="M201.763,308.438c-0.331,1.903,1.13,3.747,3.262,4.117
			c2.132,0.371,4.129-0.872,4.46-2.776c0.331-1.903-1.13-3.747-3.262-4.118c-0.341-0.059-0.677-0.072-1.004-0.053l-0.523,3.008
			l-1.498-0.26l0.336-1.93l0.067-0.387C202.648,306.525,201.947,307.379,201.763,308.438z"/>
		<path fill="#D93827" stroke="#D93827" stroke-width="0.1269" d="M203.649,308.029l0.856,0.149l0.367-2.115
			c-0.335,0.036-0.655,0.153-0.94,0.337l-0.047,0.272L203.649,308.029z"/>
	</g>
	<g>
		<path fill="#D93827" d="M220.388,393.208v-18.589h-1.897v18.589c0,0-9.674-0.379-9.674,16.692
			c0,17.072,11.002,17.641,11.002,17.641s9.674,2.845,9.674-17.83C229.492,409.71,230.251,393.966,220.388,393.208z
			 M219.679,399.278c-0.495,0-0.897-0.552-0.897-1.233c0-0.681,0.402-1.233,0.897-1.233c0.496,0,0.898,0.552,0.898,1.233
			C220.578,398.725,220.176,399.278,219.679,399.278z"/>
		<line fill="#D93827" stroke="#D93827" stroke-width="2.1605" x1="219.398" y1="376.286" x2="219.398" y2="260.5"/>
	</g>
	<g>
		<g>
			<circle fill="#D93927" stroke="#D93927" stroke-width="0.4029" cx="268.221" cy="184.833" r="16.191"/>
			<circle fill="#EFC319" stroke="#EFC319" stroke-width="0.3611" cx="268.133" cy="184.796" r="14.511"/>
			<circle fill="#D93927" stroke="#D93927" stroke-width="0.3132" cx="268.059" cy="184.766" r="12.208"/>
			<path fill="#D93927" d="M271.616,150.506"/>
			<path fill="none" stroke="#D93927" stroke-width="0.6419" stroke-linejoin="round" d="M271.616,150.506
				c0,0-3.507-3.252-8.669-1.13c-5.162,2.122-20.649,8.488-20.649,8.488s-2.382,1.649-1.152,3.692l8.505,20.775
				c0,0-0.029,1.507,3.009,8.897c3.038,7.391,3.645,8.482,4.236,8.642l4.668,11.357c0,0,0.424,2.15,2.858,1.328
				c2.434-0.822,18.088-6.452,22.331-9.179c0,0,4.814-1.89,3.127-8.438l-1.607-6.133c0,0,5.783-5.506,5.466-9.756l-3.081-7.495
				c0,0-1.937-3.406-10.306-3.541l-0.508-0.149l-0.508-0.149l-3.203-7.355c0,0,0.311-1.2-0.443-3.036c0,0-1.078-1.971-1.635-2.457
				C274.055,154.867,273.324,151.583,271.616,150.506z"/>
			<path fill="none" stroke="#D93927" stroke-width="0.6419" stroke-linejoin="round" d="M276.134,160.36
				c0,0-3.329,1.905-5.238-1.869c0,0-0.904-1.328,0.339-3.089c0,0-2.948-3.731-0.04-5.227"/>
			<path fill="none" stroke="#D93927" stroke-width="0.6419" stroke-linejoin="round" d="M288.274,188.805l-9.554,9.218
				l-0.213,3.559c0,0,0.009,1.784-2.459,2.619c0,0-1.695,1.412-3.695-0.626l-2.026-2.101c0,0-4,1.361-9.89-1.225
				c0,0-2.963,0.131-3.54-0.377"/>
			<path fill="none" stroke="#D93927" stroke-width="0.6419" stroke-linejoin="round" d="M249.652,182.331
				c0,0,0.954-1.706,2.251-2.624c0,0,2.105-10.064,14.505-11.635l13.945-0.06"/>
			
				<ellipse transform="matrix(0.3802 0.9249 -0.9249 0.3802 308.382 -138.1545)" fill="#D93927" stroke="#D93927" stroke-width="0.6419" stroke-linejoin="round" cx="257.272" cy="161.016" rx="1.356" ry="2.728"/>
			
				<ellipse transform="matrix(0.3802 0.9249 -0.9249 0.3802 303.9863 -150.5554)" fill="#D93927" stroke="#D93927" stroke-width="0.6419" stroke-linejoin="round" cx="264.327" cy="151.536" rx="1.819" ry="1.778"/>
			
				<ellipse transform="matrix(0.3802 0.9249 -0.9249 0.3802 357.6752 -129.8398)" fill="#D93927" stroke="#D93927" stroke-width="0.5028" stroke-linejoin="round" cx="275.715" cy="201.952" rx="1.474" ry="1.349"/>
			
				<ellipse transform="matrix(0.3802 0.9249 -0.9249 0.3802 362.8047 -138.6089)" fill="#D93927" stroke="#D93927" stroke-width="0.5028" stroke-linejoin="round" cx="284.823" cy="201.395" rx="1.473" ry="1.35"/>
			<path fill="#D93927" stroke="#D93927" stroke-width="0.5028" stroke-linejoin="round" d="M265.717,148.688
				c0,0,5.222,11.54,7.955,19.353"/>
			<path fill="#D93927" stroke="#D93927" stroke-width="0.5028" stroke-linejoin="round" d="M283.931,192.996
				c0,0,2.622,5.26,3.977,9.674"/>
			<path fill="#D93927" stroke="#D93927" stroke-width="0.5028" stroke-linejoin="round" d="M286.99,176.983l-2.856-6.949
				c0,0-0.629-1.529,1.606-0.66c0,0,1.645,0.305,2.588,2.6c0.944,2.296,3.521,8.567,3.521,8.567s0.858,1.435-0.384,3.197
				c0,0-0.932,2.082-1.673,0.062S286.99,176.983,286.99,176.983z"/>
			<path fill="none" stroke="#D93927" stroke-width="0.5028" stroke-linejoin="round" d="M281.5,167.541
				c-0.633,0.26-1.358-0.042-1.618-0.676l-3.025-7.359c-0.261-0.634,0.042-1.359,0.675-1.619l0,0
				c0.633-0.26,1.358,0.042,1.619,0.676l3.025,7.359C282.436,166.556,282.133,167.281,281.5,167.541L281.5,167.541z"/>
			<path fill="none" stroke="#D93927" stroke-width="0.5028" stroke-linejoin="round" d="M279.353,159.057"/>
			<path fill="none" stroke="#D93927" stroke-width="0.5028" stroke-linejoin="round" d="M276.857,159.507
				c0,0,1.906-1.887,2.496-0.451"/>
			<path fill="none" stroke="#D93927" stroke-width="0.5028" stroke-linejoin="round" d="M279.659,159.803
				c0,0-0.753-1.18-2.496,0.451"/>
			<path fill="none" stroke="#D93927" stroke-width="0.5028" stroke-linejoin="round" d="M281.96,165.399
				c0,0-0.753-1.18-2.496,0.451"/>
			<path fill="none" stroke="#D93927" stroke-width="0.5028" stroke-linejoin="round" d="M281.572,164.455
				c0,0-0.753-1.18-2.496,0.45"/>
			<path fill="none" stroke="#D93927" stroke-width="0.5028" stroke-linejoin="round" d="M281.265,163.708
				c0,0-0.753-1.18-2.496,0.45"/>
			<path fill="none" stroke="#D93927" stroke-width="0.5028" stroke-linejoin="round" d="M280.91,162.846
				c0,0-0.753-1.18-2.496,0.451"/>
			<path fill="none" stroke="#D93927" stroke-width="0.5028" stroke-linejoin="round" d="M280.522,161.901
				c0,0-0.753-1.18-2.496,0.451"/>
			<path fill="none" stroke="#D93927" stroke-width="0.5028" stroke-linejoin="round" d="M280.273,161.295
				c0,0-0.753-1.18-2.496,0.45"/>
			<path fill="none" stroke="#D93927" stroke-width="0.5028" stroke-linejoin="round" d="M279.966,160.549
				c0,0-0.753-1.18-2.496,0.45"/>
			<path fill="none" stroke="#D93927" stroke-width="0.3726" stroke-linejoin="round" d="M282.272,167.003
				c0,0-0.558-0.874-1.85,0.334"/>
			<path fill="none" stroke="#D93927" stroke-width="0.5028" stroke-linejoin="round" d="M282.273,166.16c0,0-0.753-1.18-2.496,0.45
				"/>
			<circle fill="#EFC319" stroke="#EFC319" stroke-width="0.251" cx="268.058" cy="184.765" r="10.088"/>
			<circle fill="#D93927" stroke="#D93927" stroke-width="0.2143" cx="268.059" cy="184.765" r="8.612"/>
			
				<ellipse transform="matrix(-0.3802 -0.9249 0.9249 -0.3802 233.8398 471.8912)" fill="#D93927" stroke="#D93927" stroke-width="0.6419" stroke-linejoin="round" cx="275.033" cy="157.595" rx="3.059" ry="0.465"/>
			
				<ellipse transform="matrix(-0.3802 -0.9249 0.9249 -0.3802 234.819 462.6574)" fill="#D93927" stroke="#D93927" stroke-width="0.5678" stroke-linejoin="round" cx="272.429" cy="152.65" rx="2.439" ry="0.456"/>
		</g>
		<path fill="none" stroke="#D93827" stroke-width="0.7399" d="M277.219,207.682c0.542-0.223,1.106-0.101,1.259,0.272l0,0
			c0.153,0.373-0.161,0.856-0.704,1.079l-2.196,0.903c-0.541,0.223-1.105,0.101-1.258-0.272l0,0
			c-0.153-0.373,0.162-0.856,0.703-1.079L277.219,207.682z"/>
		<path fill="none" stroke="#D93827" stroke-width="0.7399" d="M254.007,151.17c0.542-0.223,1.105-0.101,1.259,0.272l0,0
			c0.153,0.373-0.162,0.856-0.703,1.078l-2.196,0.903c-0.542,0.223-1.106,0.101-1.259-0.272l0,0
			c-0.153-0.373,0.161-0.856,0.704-1.079L254.007,151.17z"/>
	</g>
	<g>
		<path fill="#FCFDFF" stroke="#D93827" stroke-width="0.2495" d="M119.177,191.241v-22.216h-3.642v-3.707h9.862
			c2.712,0,4.746,0.164,6.103,0.49c1.356,0.327,2.552,1.154,3.589,2.482c1.036,1.328,1.555,2.886,1.555,4.675
			c0,1.377-0.309,2.62-0.927,3.728c-0.618,1.108-1.523,1.946-2.716,2.514c1.647,0.568,2.915,1.509,3.802,2.822
			s1.332,2.815,1.332,4.505c0,1.462-0.33,2.79-0.991,3.983c-0.66,1.193-1.537,2.116-2.63,2.769c-1.094,0.653-2.29,1.094-3.589,1.321
			c-1.299,0.228-3.071,0.341-5.314,0.341h-10.075v-3.707H119.177z M123.65,177.651h2.791c2.13,0,3.618-0.373,4.462-1.118
			s1.268-1.842,1.268-3.291c0-2.812-1.91-4.217-5.73-4.217h-2.791V177.651z M123.65,191.241h1.683c2.201,0,3.812-0.11,4.835-0.33
			c1.022-0.22,1.857-0.738,2.503-1.555s0.969-1.864,0.969-3.142c0-1.164-0.309-2.141-0.927-2.929
			c-0.618-0.788-1.413-1.313-2.385-1.576c-0.973-0.263-2.347-0.394-4.122-0.394h-2.556V191.241z"/>
		<path fill="#FCFDFF" stroke="#D93827" stroke-width="0.2495" d="M163.377,185.66h-17.34c0.256,1.903,1.008,3.444,2.258,4.622
			c1.25,1.179,2.847,1.768,4.793,1.768c2.826,0,5.062-1.136,6.709-3.408l3.58,1.576c-1.166,1.804-2.678,3.142-4.538,4.016
			c-1.86,0.873-3.806,1.31-5.836,1.31c-3.152,0-5.847-0.983-8.083-2.95c-2.237-1.967-3.355-4.619-3.355-7.956
			c0-3.167,1.09-5.772,3.27-7.817s4.683-3.067,7.509-3.067c2.769,0,5.279,0.998,7.53,2.993
			C162.123,178.741,163.291,181.712,163.377,185.66z M159.201,182.721c-0.284-1.449-1.037-2.759-2.258-3.93
			c-1.222-1.171-2.72-1.757-4.495-1.757c-1.619,0-3.003,0.529-4.154,1.587c-1.15,1.058-1.853,2.425-2.108,4.101H159.201z"/>
		<path fill="#FCFDFF" stroke="#D93827" stroke-width="0.2495" d="M166.315,177.928v-3.6H169v-3.174l4.047-3.707v6.88h3.812v3.6
			h-3.812v10.012c0,1.604,0.089,2.595,0.267,2.971c0.177,0.376,0.621,0.564,1.331,0.564c0.752,0,1.491-0.142,2.215-0.426v3.685
			c-1.036,0.369-2.073,0.554-3.109,0.554c-1.235,0-2.237-0.273-3.004-0.82c-0.767-0.546-1.25-1.231-1.448-2.055
			c-0.199-0.824-0.298-2.244-0.298-4.26v-10.225H166.315z"/>
		<path fill="#FCFDFF" stroke="#D93827" stroke-width="0.2495" d="M179.479,177.928v-3.6h2.685v-3.174l4.047-3.707v6.88h3.812v3.6
			h-3.812v10.012c0,1.604,0.089,2.595,0.267,2.971c0.177,0.376,0.621,0.564,1.331,0.564c0.752,0,1.491-0.142,2.215-0.426v3.685
			c-1.036,0.369-2.073,0.554-3.109,0.554c-1.235,0-2.237-0.273-3.004-0.82c-0.767-0.546-1.25-1.231-1.448-2.055
			c-0.199-0.824-0.298-2.244-0.298-4.26v-10.225H179.479z"/>
		<path fill="#FCFDFF" stroke="#D93827" stroke-width="0.2495" d="M214.711,185.66h-17.339c0.255,1.903,1.008,3.444,2.258,4.622
			c1.249,1.179,2.847,1.768,4.792,1.768c2.826,0,5.062-1.136,6.71-3.408l3.579,1.576c-1.165,1.804-2.678,3.142-4.537,4.016
			c-1.861,0.873-3.807,1.31-5.837,1.31c-3.152,0-5.847-0.983-8.084-2.95c-2.236-1.967-3.354-4.619-3.354-7.956
			c0-3.167,1.09-5.772,3.27-7.817s4.683-3.067,7.509-3.067c2.77,0,5.279,0.998,7.53,2.993
			C213.457,178.741,214.625,181.712,214.711,185.66z M210.535,182.721c-0.284-1.449-1.036-2.759-2.258-3.93
			c-1.221-1.171-2.719-1.757-4.494-1.757c-1.619,0-3.003,0.529-4.153,1.587c-1.15,1.058-1.854,2.425-2.109,4.101H210.535z"/>
		<path fill="#FCFDFF" stroke="#D93827" stroke-width="0.2495" d="M221.442,191.348v-13.42h-4.153v-3.6h7.391v4.644
			c0.455-1.207,1.087-2.208,1.896-3.003c0.809-0.795,1.664-1.321,2.566-1.576c0.901-0.256,2.134-0.383,3.695-0.383h1.065v4.089
			h-0.81c-2.06,0-3.597,0.206-4.611,0.618c-1.016,0.412-1.769,1.161-2.258,2.248c-0.49,1.086-0.735,3.035-0.735,5.847v4.537h4.495
			v3.6h-12.695v-3.6H221.442z"/>
		<path fill="#FCFDFF" stroke="#D93827" stroke-width="0.2495" d="M115.245,225.691v-2.159h2.198v-13.458h-2.198v-2.16h4.576v7.157
			c1.218-1.397,2.713-2.096,4.486-2.096c1.704,0,3.133,0.586,4.288,1.757c1.154,1.172,1.731,2.716,1.731,4.633
			c0,1.84-0.564,3.388-1.693,4.645s-2.575,1.886-4.339,1.886c-0.989,0-1.892-0.213-2.709-0.64c-0.818-0.426-1.406-0.898-1.764-1.418
			v1.853H115.245z M119.897,219.532c0,1.287,0.394,2.307,1.182,3.061c0.788,0.754,1.698,1.131,2.729,1.131
			c1.082,0,2.015-0.4,2.799-1.201c0.784-0.801,1.176-1.875,1.176-3.221c0-1.304-0.39-2.315-1.169-3.036
			c-0.78-0.72-1.694-1.08-2.742-1.08c-1.031,0-1.951,0.373-2.761,1.118S119.897,218.126,119.897,219.532z"/>
		<path fill="#FCFDFF" stroke="#D93827" stroke-width="0.2495" d="M136.754,225.475l-4.064-9.994h-2.058v-2.16h6.122v2.16h-1.483
			l2.671,6.85l2.62-6.85h-1.636v-2.16h5.994v2.16h-1.84l-6.122,15.758h-4.103v-2.121h2.416L136.754,225.475z"/>
		<path fill="#FCFDFF" stroke="#D93827" stroke-width="0.2495" d="M119.177,266.892v-22.216h-3.642v-3.707h9.862
			c2.712,0,4.746,0.164,6.103,0.49c1.356,0.327,2.552,1.154,3.589,2.481c1.036,1.328,1.555,2.887,1.555,4.676
			c0,1.377-0.309,2.62-0.927,3.728c-0.618,1.107-1.523,1.945-2.716,2.514c1.647,0.567,2.915,1.509,3.802,2.822
			s1.332,2.815,1.332,4.505c0,1.463-0.33,2.79-0.991,3.983c-0.66,1.192-1.537,2.116-2.63,2.769c-1.094,0.653-2.29,1.094-3.589,1.321
			s-3.071,0.341-5.314,0.341h-10.075v-3.707H119.177z M123.65,253.302h2.791c2.13,0,3.618-0.372,4.462-1.118
			c0.845-0.745,1.268-1.842,1.268-3.291c0-2.812-1.91-4.217-5.73-4.217h-2.791V253.302z M123.65,266.892h1.683
			c2.201,0,3.812-0.109,4.835-0.33c1.022-0.22,1.857-0.738,2.503-1.555s0.969-1.863,0.969-3.142c0-1.164-0.309-2.141-0.927-2.929
			c-0.618-0.788-1.413-1.313-2.385-1.576c-0.973-0.263-2.347-0.395-4.122-0.395h-2.556V266.892z"/>
		<path fill="#FCFDFF" stroke="#D93827" stroke-width="0.2495" d="M145.1,266.999v-13.42h-4.154v-3.6h7.392v4.644
			c0.454-1.207,1.086-2.208,1.896-3.004c0.81-0.795,1.665-1.32,2.567-1.576c0.901-0.256,2.133-0.383,3.696-0.383h1.065v4.089h-0.81
			c-2.059,0-3.597,0.206-4.611,0.618c-1.016,0.412-1.768,1.161-2.258,2.247c-0.49,1.087-0.735,3.035-0.735,5.848v4.537h4.495v3.6
			h-12.695v-3.6H145.1z"/>
		<path fill="#FCFDFF" stroke="#D93827" stroke-width="0.2495" d="M179.395,261.312h-17.339c0.255,1.902,1.008,3.443,2.258,4.622
			c1.249,1.179,2.847,1.768,4.792,1.768c2.826,0,5.062-1.136,6.71-3.408l3.579,1.576c-1.165,1.804-2.678,3.143-4.537,4.016
			c-1.861,0.874-3.807,1.311-5.837,1.311c-3.152,0-5.847-0.983-8.083-2.95c-2.237-1.967-3.355-4.619-3.355-7.956
			c0-3.167,1.09-5.772,3.27-7.817s4.683-3.067,7.509-3.067c2.77,0,5.279,0.998,7.53,2.992
			C178.141,254.393,179.309,257.363,179.395,261.312z M175.219,258.372c-0.284-1.449-1.036-2.759-2.258-3.931
			c-1.221-1.171-2.719-1.757-4.494-1.757c-1.619,0-3.003,0.529-4.153,1.587s-1.854,2.425-2.109,4.101H175.219z"/>
		<path fill="#FCFDFF" stroke="#D93827" stroke-width="0.2495" d="M182.333,253.579v-3.6h2.685v-3.174l4.047-3.707v6.881h3.812v3.6
			h-3.812v10.012c0,1.604,0.089,2.595,0.267,2.971c0.177,0.377,0.621,0.564,1.331,0.564c0.752,0,1.491-0.142,2.215-0.426v3.686
			c-1.036,0.369-2.073,0.554-3.109,0.554c-1.235,0-2.237-0.273-3.004-0.82s-1.25-1.231-1.448-2.056
			c-0.199-0.823-0.298-2.243-0.298-4.26v-10.225H182.333z"/>
		<path fill="#FCFDFF" stroke="#D93827" stroke-width="0.2495" d="M195.497,253.579v-3.6h2.685v-3.174l4.047-3.707v6.881h3.812v3.6
			h-3.812v10.012c0,1.604,0.089,2.595,0.267,2.971c0.177,0.377,0.621,0.564,1.331,0.564c0.752,0,1.491-0.142,2.215-0.426v3.686
			c-1.036,0.369-2.073,0.554-3.109,0.554c-1.235,0-2.237-0.273-3.004-0.82s-1.25-1.231-1.448-2.056
			c-0.199-0.823-0.298-2.243-0.298-4.26v-10.225H195.497z"/>
	</g>
</g>
</svg>
